<svg width="124" height="28" viewBox="0 0 124 28" fill="none" xmlns="http://www.w3.org/2000/svg">
<path d="M60.1866 13.8831L67.2502 27.0493H74.1589L60.1866 0.968994L46.2144 27.0493H53.1618L60.1866 13.8831Z" fill="black"/>
<path d="M37.2528 20.9411L37.2721 0.930054H31.1569V27.0492H42.9423L46.2128 20.9411H37.2528Z" fill="black"/>
<path d="M13.9916 1.34345e-05C11.2274 -0.0038228 8.52406 0.814001 6.22379 2.35001C3.92351 3.88601 2.12964 6.07117 1.06914 8.62899C0.00864856 11.1868 -0.270812 14.0024 0.266124 16.7194C0.80306 19.4364 2.13226 21.9328 4.08555 23.8926C6.03883 25.8525 8.52841 27.1878 11.2393 27.7296C13.9502 28.2713 16.7605 27.9952 19.3148 26.9362C21.869 25.8771 24.0523 24.0827 25.5884 21.78C27.1246 19.4773 27.9445 16.7698 27.9445 14C27.9445 10.2903 26.4751 6.73232 23.859 4.10737C21.2429 1.48241 17.6939 0.00515149 13.9916 1.34345e-05ZM13.9916 21.5429C12.5019 21.5468 11.0446 21.1077 9.80404 20.2812C8.56352 19.4547 7.59563 18.278 7.02288 16.9C6.45014 15.5221 6.2983 14.0048 6.58658 12.5404C6.87486 11.0759 7.5903 9.73008 8.64233 8.67324C9.69437 7.6164 11.0357 6.89608 12.4965 6.60346C13.9573 6.31084 15.4719 6.45908 16.8486 7.02941C18.2253 7.59974 19.4022 8.56653 20.2302 9.80737C21.0583 11.0482 21.5003 12.5073 21.5003 14C21.4952 15.9989 20.7004 17.9145 19.2897 19.328C17.8791 20.7415 15.9673 21.5378 13.9723 21.5429H13.9916Z" fill="black"/>
<path d="M101.135 4.3054C98.4676 2.99741 95.5316 2.33334 92.5621 2.36634C88.9626 2.36634 86.7564 4.46053 86.7564 6.82618C86.7564 9.98684 88.4981 10.9176 94.3425 12.8954C100.187 14.8733 102.799 16.7735 102.799 20.6517C102.799 25.7514 98.8322 27.5353 94.4779 27.5353C90.45 27.5677 86.5486 26.1268 83.5052 23.4827L84.4342 22.0284C87.2099 24.4459 90.7615 25.7812 94.4392 25.7902C98.6967 25.7902 100.825 24.0256 100.825 20.865C100.825 17.7043 99.2192 16.4633 93.0846 14.3691C87.5692 12.527 84.8793 11.4217 84.8793 6.92313C84.8793 3.29709 87.9175 0.640583 92.6201 0.640583C95.8136 0.631688 98.966 1.36163 101.832 2.77355L101.135 4.3054Z" fill="black"/>
<path d="M107.579 27.1271V25.4595H115.165V3.43179C112.807 4.48852 110.35 5.30698 107.83 5.87501L107.405 4.59523C110.275 3.77265 113.027 2.57984 115.591 1.04675H117.042V25.4595H123.37V27.1271H107.579Z" fill="black"/>
</svg>
