<svg width="16" height="10" viewBox="0 0 16 10" fill="none" xmlns="http://www.w3.org/2000/svg">
<path fill-rule="evenodd" clip-rule="evenodd" d="M11.3542 4.25C10.3153 3.35529 9.25 1.95776 9.25 0H10.75C10.75 1.43339 11.5629 2.49103 12.4729 3.23041C12.9237 3.59667 13.3783 3.86701 13.7215 4.04575C13.8922 4.13466 14.0329 4.19968 14.1287 4.24159C14.1766 4.26252 14.213 4.2776 14.2361 4.28695L14.2605 4.29664L14.2633 4.29775L14.2647 4.29826L15.8737 4.90165L14.3363 5.67039L14.3304 5.67339L14.3037 5.68724C14.279 5.7002 14.2409 5.72052 14.1914 5.74797C14.0921 5.80291 13.9474 5.88605 13.7725 5.99537C13.4211 6.215 12.9557 6.53532 12.4939 6.93943C11.5387 7.77522 10.75 8.83483 10.75 10H9.25C9.25 8.16517 10.4613 6.72478 11.5061 5.81057C11.5294 5.79018 11.5527 5.76999 11.576 5.75H0V4.25H11.3542Z" fill="#CDDC39"/>
</svg>
