<svg width="52" height="32" viewBox="0 0 52 32" fill="none" xmlns="http://www.w3.org/2000/svg">
<g clip-path="url(#clip0_482_2910)">
<path d="M41.6949 15.92L46.5222 24.9734H51.2699L41.6949 7.04004L32.1199 24.9734H36.8676L41.6949 15.92Z" fill="black"/>
<path d="M25.9797 20.7734L25.993 7.01343H21.8022V24.9734H29.8787L32.1199 20.7734H25.9797Z" fill="black"/>
<path d="M10.0392 6.3733C8.14488 6.37066 6.29235 6.93301 4.716 7.9892C3.13966 9.04539 1.91034 10.5479 1.1836 12.3068C0.456854 14.0656 0.265344 16.0016 0.633299 17.8698C1.00125 19.7381 1.91214 21.4547 3.2507 22.8023C4.58925 24.15 6.29533 25.0681 8.15306 25.4407C10.0108 25.8132 11.9367 25.6233 13.6871 24.8951C15.4374 24.1669 16.9336 22.933 17.9863 21.3496C19.039 19.7663 19.6009 17.9045 19.6009 16C19.6009 13.4491 18.594 11.0026 16.8012 9.1976C15.0084 7.39263 12.5763 6.37683 10.0392 6.3733ZM10.0392 21.1866C9.01832 21.1893 8.01961 20.8873 7.1695 20.319C6.31939 19.7507 5.65611 18.9416 5.26361 17.9941C4.87112 17.0466 4.76706 16.0033 4.96462 14.9963C5.16217 13.9893 5.65245 13.0639 6.3734 12.3372C7.09434 11.6105 8.01353 11.1152 9.01461 10.914C10.0157 10.7127 11.0536 10.8147 11.9971 11.2068C12.9405 11.599 13.747 12.2638 14.3144 13.117C14.8819 13.9703 15.1848 14.9736 15.1848 16C15.1813 17.3768 14.6348 18.696 13.6652 19.6683C12.6956 20.6406 11.3821 21.1866 10.0127 21.1866H10.0392Z" fill="black"/>
</g>
<defs>
<clipPath id="clip0_482_2910">
<rect width="51.7209" height="32" fill="white"/>
</clipPath>
</defs>
</svg>
